<?xml version="1.0" encoding="utf-8"?>
<!-- Generator: Adobe Illustrator 24.0.1, SVG Export Plug-In . SVG Version: 6.00 Build 0)  -->
<svg version="1.1" id="b64b805f-e6f6-44d8-97ce-775b67d7efb4"
	 xmlns="http://www.w3.org/2000/svg" xmlns:xlink="http://www.w3.org/1999/xlink" x="0px" y="0px" viewBox="0 0 666.9 713.5"
	 style="enable-background:new 0 0 666.9 713.5;" xml:space="preserve">
<style type="text/css">
	.st0{fill:#6C63FF;}
	.st1{fill:none;}
	.st2{fill:#3F3D56;}
	.st3{fill:#E6E6E6;}
	.st4{fill:#2F2E41;}
	.st5{fill:#FFB9B9;}
</style>
<g>
	<g>
		<g>
			<g>
				<g>
					<path class="st0" d="M654.7,165.2c-3.6-43.8-23.2-84.7-54.9-115.1c-1.6-1.6-3.3-3.1-4.9-4.6c-2.1-1.9-4.2-3.7-6.4-5.4
						C512.1-21.6,400.4-11,337,64c-1.3,1.6-2.7,3.2-4,4.8c-1.9,2.4-3.7,4.8-5.4,7.2c-21.6,30.5-33.2,66.9-33.2,104.3
						c0,0,0,0.1,0,0.1c0-37.3,11.6-73.7,33.2-104.1c4.2,1.6,8.3,3,12.4,1.6c0.1-0.1,0.1-0.3,0.1-0.4c-0.2-1.1-1.8-1.9-3.1-2.1
						c-1.6-0.2-3.8-0.5-4-2.1c0-0.2,0-0.3,0-0.5c0,0,0,0,0,0c-0.1-0.8,0.4-1.7,0.5-2.5c0-0.3-0.1-0.5-0.4-0.7
						c-0.1-0.1-0.2-0.1-0.2-0.1l0.3-0.3c0,0,0,0,0,0c-0.1-0.1-0.2-0.1-0.2-0.1l4-4.8c1.2,0,2.4,0.2,3.5,0.6
						c3.5,1.3,6.5,4.5,10.3,4.5c0.5-0.1,1,0,1.4,0.1c0.8,0.3,1.1,1.1,1,1.9c0.1,1-0.4,2.1-1.1,2.9c-1.4,1.7-3.3,3.1-5.4,3.9
						c2.5,0.4,4.9,0.8,7.4,1.1c1.2,0.3,2.5,0.3,3.8,0c1.2-0.3,2.2-1.3,2.3-2.5c-0.1-0.7-0.4-1.5-0.3-2.1c0-0.5,0-0.9,0.3-1.2
						c0.4-0.3,0.9-0.5,1.4-0.5c2-0.3,4-0.6,6-0.9c0.1,0,0.2-0.1,0.3-0.1c1-0.1,1.9,0.5,2,1.5c0.7,1.6,1.1,3.3,1.3,5.1
						c1.4,0.6,3.4,0.7,4.9,1.2c-0.5-0.9-0.9-1.9-1.1-2.9c0-0.2,0-0.5,0-0.7c-0.1-1.2,0.6-2.4,1.7-3c0.8-0.3,1.9-0.2,2.2-1
						c0-0.1,0-0.1,0-0.2c-0.1-0.5-0.4-1.1-0.4-1.6c0,0,0-0.1,0-0.1c0-0.1,0-0.2,0-0.4c0.1-1.4,2-1.6,3.4-1.3
						c7.7,1.4,15.4,2.8,23.1,4.2c0.4,0,0.8,0.2,1.1,0.4c0.6,0.4,0.6,1.1,0.6,1.9c0,0.4,0,0.8,0,1.2c0,0.1,0,0.1,0,0.2
						c0.1,1.7,1.5,3,2.2,4.6c0.2,0.5,0.3,1.1,0.3,1.7c0.1,1.4-0.6,2.9-1.9,2.7c-1.3-0.1-1.9-1.7-3.1-2.2c-1.4-0.3-2.7,0.4-3.2,1.7
						c-0.2,0.6-0.3,1.2-0.3,1.9c0,0.5,0.1,1.1,0.2,1.6c0,0-0.1,0-0.1,0c0,0.2,0,0.4,0.1,0.5c-2-1.1-4.1-2.1-6.2-3
						c-1.4-0.7-2.8-1.1-4.3-1.3c-0.6,0-1.1-0.1-1.6-0.4c-0.5-0.3-0.7-0.9-0.6-1.5c-0.1-0.9,0.5-2.1,1.2-2.8c0.7-0.8,1.5-1.7,1.7-2.7
						c0-0.2-0.1-0.4-0.2-0.6c-6.5-0.4-12.8,2.1-17.2,6.8c-0.2,0.2-0.4,0.5-0.5,0.8c0.2,0.8,1.4,1.2,1.6,2.1c0,0.1,0,0.2,0,0.4
						c0,0,0,0.1,0,0.1c0,0.8-0.5,1.4-1.3,1.5c-0.7,0.1-1.5,0-2.2-0.4c-2-0.7-4-1.4-6.1-2.1c-0.5-0.2-1-0.3-1.6-0.2
						c-0.8,0.3-1.1,1.3-1.7,1.9c-1.1,1.2-3,1.2-4.6,1.4c-3.8,0.6-6.9,3.2-8.2,6.8c-0.1,0.4-0.2,0.7-0.3,1.1c0,0.3,0.1,0.6,0.2,0.9
						c0.3,0.7,0.9,1.2,1.5,1.6c1.3,0.9,2.6,1.7,4.1,2.3c1.3,0.4,2.5,1,3.6,1.8c1.5,1.2,2.3,3,2.2,4.8c0.1,0.9-0.1,1.8-0.4,2.7
						c1.2,1,3.3,0.2,4.2-1.2c1-1.4,1.4-3.1,2.6-4.4c2-2.4,5.9-2.8,7.6-5.4c0.8-1.2,0.9-2.6,0.9-4.1c0-0.5,0-1,0-1.5c0-1,0-2,0.2-2.9
						c0-0.4,0.3-0.8,0.7-1.1c0.6-0.3,1.2,0.2,1.7,0.4c2.3,0.9,4.5-2,7-2.1c2.7-0.1,4.2,3,6.2,4.9c2.1,2.1,5.1,3,8,2.5
						c-0.1,0.2-0.1,0.3-0.2,0.5c0.1,0,0.1,0,0.2,0c-0.4,0.9-0.6,1.9-0.6,2.8c0.1,1.8,0.8,3.5,2.1,4.7c0.9,0.8,2,1.5,2.4,2.7
						c0.1,0.4,0.1,0.7,0.1,1c0.2,2.1-2.3,4.1-2.5,6.2c0,0.1,0,0.3,0.1,0.4c0.6,2.3,3.9,2.8,5,4.9c0.3,0.5,0.4,1,0.3,1.6
						c0.2,2-1.7,4-3.9,4.4c-2.5,0.4-5-0.8-7.2-1.9c-0.2-0.6-0.2-1.2-0.2-1.8c-0.1-1.5,0.5-3,1.6-4.1c0.7-0.5,1.4-1.1,2-1.8
						c0.2-0.3,0.4-0.6,0.4-0.9c0-0.4-0.2-0.7-0.5-1c-0.4-0.2-1-0.3-1.5-0.2c-4.3,0.2-8.6,0.9-12.8,2.1c-1,0.3-2.3,1.1-2.5,2
						c0,0.1,0.1,0.3,0.2,0.4c0.3-0.1,0.6-0.1,0.9-0.1c1.4,0.1,2.4,1.3,2.3,2.6c0,0,0,0,0,0.1c0,0.1,0,0.3,0,0.4
						c-0.1,0.5-0.3,1-0.4,1.4c0,0,0,0.1,0,0.1c0.2,0.9,1.2,1.3,2,1.8c0.6,0.4,1,1.2,0.9,1.8c0.1,0.4,0,0.8-0.4,1
						c-0.6,0.1-0.6-0.1-1.2,0.1c-10.8,3.4-20.5,9.8-30,16.1c-0.6,0.3-1.1,0.8-1.5,1.4c-0.2,0.6-0.4,1.3-0.4,2
						c-0.5,3.5-4.2,5.5-7.5,7s-6.9,3.6-7.2,7.2c0,0.1,0,0.2,0,0.3c0.1,1.6,0.8,3.1,1.1,4.7c0.1,0.6,0.2,1.1,0.2,1.7
						c0.1,1.5-0.4,3.1-1.7,3.8c-1.9,1-4.2-0.6-5.3-2.5c-1-1.9-1.4-4.2-2.8-5.8c-1-1.1-2.3-1.9-3.7-2.2c-1.7-0.4-3.5,0-4.8,1.2
						c-0.6,0.6-1,1.4-1.1,2.2c0,0.7,0.3,1.4,0.7,1.9c-0.1,0-0.2,0-0.3,0c0.1,0.2,0.2,0.4,0.3,0.5c-4.8-0.5-10.3-0.8-13.9,2.4
						c-2.1,2.1-3.3,4.9-3.3,7.9c0,2.9,0.4,5.8,1.1,8.5c0.5,2.2,1.3,4.7,3.5,5.3c1.6,0.3,3.2-0.4,4.1-1.7c0.9-1.3,1.6-2.7,2.2-4.2
						c1.1-2.5,2.8-5,5.4-5.9c2.5-0.8,5.8,1.1,5.6,3.7c0,0.2,0,0.5,0,0.7c-0.3,1.7-1.9,2.8-3.2,4c-1,0.8-1.9,2-2,3.2
						c0,0.3,0.1,0.5,0.2,0.8c2.8-0.2,5.8,0.3,7.8,2.1c1.4,1.3,2,3.1,1.9,4.9c0,1.1-0.2,2.3-0.8,3.4c0,0.1-0.1,0.2-0.1,0.3
						c-0.3,0.6-0.5,1.3-0.5,1.9c0,1.9,1.1,3.7,2.9,4.6c1.2,0.4,2.5,0.7,3.7,0.9c1.9,0.6,3.6,1.8,4.6,3.6c3-0.1,5.7-2.1,6.6-5
						c0.1-0.8,0.4-1.6,0.7-2.3c1.2-1.9,3.9-1.6,6.1-1.1c4,1,8.1,1.9,12.1,2.8c3,0.7,6.2,1.5,8.2,3.8c1.3,1.4,2,3.4,3.6,4.4
						c1.6,1,3.6,0.9,5.4,1.2c5,0.9,8.9,4.8,9.8,9.8c0.2,1.6,0.3,3.4,1.6,4.4c1.5,1,3.5,0.2,5.3,0.4c3.2,0.3,5.2,3.9,8.3,4.7
						c1.8,0.4,3.8-0.1,5.4,0.7c1.8,1,2.3,3.3,3.9,4.5c1.8,1.3,4.4,1,6,2.4c1.4,1.2,1.7,3.1,1.6,5c0,0.6,0,1.3-0.1,1.9
						c0,2.1-0.4,4.2-1.1,6.2c-1.8,4.7-6.8,8.3-7,13.1c0,0.2,0,0.5,0,0.7c0.2,1.8,1.2,3.4,1.8,5.1c0.3,0.9,0.5,1.9,0.5,2.8
						c0,1-0.2,2-0.8,2.8c-0.5,0.5-1.1,1-1.8,1.3c-3.7,2.1-7.5,4.3-11.2,6.4c-0.8,0.3-1.4,1-1.8,1.7c0,0.2,0,0.4,0,0.6
						c0,0.2,0.1,0.5,0.1,0.7c0.3,1.2,0.4,2.4,0.4,3.6c0,1.2-0.1,2.5-0.5,3.7c-0.7,2-2.5,4.4-4.5,5.1c1.9,1.3,3.4,3.2,4,5.4
						c-0.1,0-0.1,0-0.2,0c0.1,0.2,0.1,0.3,0.2,0.5c-5,0.6-10,0.7-15,0.5c0.1,1.6,0.8,3.1,1.2,4.6c0.2,0.7,0.3,1.6,0.3,2.3
						c0.1,1.1-0.2,2.3-0.9,3.1c-1.4,1.6-3.8,1.5-6,1.3c0.1,0.4,0.2,0.8,0.1,1.2c0.1,1-0.3,1.9-1,2.6c-0.9,0.9-2,1.6-3.1,2.1
						c1,0.8,1.6,2.1,1.5,3.5c0,0.3,0,0.6,0,0.9c-0.1,0.5-0.4,1-0.6,1.5c25,15.3,53.9,24.7,84.9,26.2c99.2,5,183.8-71.1,189.3-170.2
						c-0.9,1.1-2.3,1.8-3.7,1.7c-3.8-0.3-5.5-5.9-9.3-6.5c-0.3-0.1-0.7-0.1-1,0.1c-0.6,0.3-0.7,1.1-0.7,1.7c-0.1,1-0.1,2.1-0.1,3.1
						c0,2,0.3,3.9,1,5.8c1.7,4,5.9,7.4,5.6,11.5c0,0.4,0,0.9-0.1,1.3c-5.3-2.4-8-8.4-9.3-14.1c-1.3-5.7-1.4-11.6-3.7-17
						c-1.7,2.2-5.3,0.4-6.8-1.9c-1.5-2.2-2.4-4.7-3.8-6.9c-1.4-2.2-3.6-4.1-6.2-4.3c-2.7-0.1-5.1,1.8-7.2,3.5c-1.8,1.3-3.3,3-4.5,5
						c-1.1,2.1-1.1,4.5-1.1,7c0,0.4,0,0.8,0,1.2c0,0.5,0,1,0,1.5c-0.1,3.5-0.8,7.3-3.2,9.9c-2.4,2.6-6.9,3.5-9.5,1.2
						c-1.3-1.3-2.2-3-2.7-4.8c-2.9-8.4-5.3-17-7.2-25.7c-0.4,2-2.2,4.6-3.9,3.4c-0.4-0.3-0.7-0.7-0.9-1.2
						c-3.1-5.3-8.9-8.4-14.7-10.3c-5.8-1.9-11.9-2.8-17.7-4.9c-3.2-1.2-6.3-2.7-9.2-4.6c-0.7,1.1-1.2,2.3-1.2,3.6
						c0,1.1,0.3,2.3,0.8,3.3c1.3,2.3,4.1,3.5,6.7,2.8c1.3-0.4,2.4-1.3,3.6-1.7c1.3-0.4,3-0.2,3.5,1c0.2,0.4,0.2,0.8,0.2,1.3
						c0,0.6-0.1,1.3-0.1,1.9c0,0.2,0,0.4,0.1,0.6c0.6,1.9,3.4,2,4.4,3.7c0.2,0.5,0.3,1.1,0.3,1.6c0.1,1.1-0.4,2.1-1.2,2.8
						c-1.1,0.9-2.4,1.7-3.7,2.3c-4.1,2.3-7.1,6.2-10.7,9.3c-3.6,3.1-8.7,5.3-13,3.3c0-0.2,0-0.3,0.1-0.5c0,0,0,0-0.1,0
						c0.1-0.3,0.1-0.6,0.1-0.8c-0.1-4.5-5.3-8.1-6.4-12.9c-0.4-1.7-0.2-3.5-0.7-5.2c-0.8-2.4-2.9-4-4.7-5.9c-4.1-4.3-6.3-10-6.3-16
						c0-0.4,0-0.9,0-1.3c0.1-1.3,0.2-2.5,0.2-3.8c0-0.7-0.1-1.4-0.2-2.1c-0.5-2.1-2.2-4.1-4.3-4c-4.9,0.2-11,0.6-13.6-3.6
						c-0.5-0.9-0.9-1.9-0.8-2.9c-0.1-0.9,0.2-1.8,0.8-2.4c0.9-0.8,2.3-0.7,3.5-0.6c3.7,0.4,7.3,0.7,11,1.1c2.6,0.2,5.3,0.5,7.5-0.9
						c1.3-0.8,2.1-2.3,2.2-3.8c-0.1-0.9-0.4-1.7-1.1-2.2c-1.5-1.2-4.2-1.1-4.6-2.9c-0.1-0.2-0.1-0.5,0-0.7c-0.1-1,0.6-2.2,0.7-3.2
						c0-0.2-0.1-0.5-0.3-0.7c-0.7-0.9-2.1-0.7-3,0c-0.8,0.8-1.6,1.6-2.5,2.2c-1.8,0.9-3.8,0-5.7-0.6c-1.9-0.6-4.4-0.6-5.3,1.1
						c-0.2,0.4-0.3,0.7-0.3,1.1c0.1,1.2,0.6,2.5,0.5,3.7c0,0.6,0,1.1-0.3,1.6c-1.3,2.6-5.9,1.1-7.8,3.4c-0.5,0.5-0.6,1.1-0.7,1.8
						c0.1,2.1,1.7,4.5,1.5,6.8c0,0.4,0,0.7-0.1,1.1c-1.9,0.9-4.1,0.8-5.9-0.3c-1.6-1.1-2.6-3-2.5-4.9c0-0.3,0-0.6,0-0.9
						c0.1-1,0.5-2.1,0.6-3.1c0-0.3-0.1-0.6-0.2-0.8c-0.6-1.1-1.5-1.9-2.6-2.4c-3.6-2-7.1-3.9-10.7-5.9c-0.2,0.4-0.3,0.8-0.3,1.2
						c0.1,1.4,1,2.8,2.2,3.8c1.6,1.4,3.5,2.4,4.6,4.2c0.5,1,0.7,2,0.6,3.1c0,1.9-1,3.7-2.7,4.7c-0.3,0.2-0.7,0.3-1.1,0.2
						c-0.3-0.2-0.6-0.5-0.7-0.9c-1.9-4.8-4.7-9.6-9.2-12.1c-4.5-2.5-11-2-14,2.2c-0.7,1-1.2,2.2-1.8,3.2c-3.3,5.7-10.2,8.3-16.8,8.2
						c-0.6,0-1.3-0.1-1.8-0.4c-0.8-0.6-1-1.6-0.9-2.6c0-0.5,0-1,0.1-1.4c0.2-1.8,0.5-3.6,0.7-5.4c0-1.1,0.4-2.2,1.2-3
						c1.2-1,3-0.4,4.5-0.4c2.4-0.1,4.5-1.7,5.2-4c0.1-0.5,0.2-1,0.2-1.5c-0.1-1.7-0.8-3.3-2-4.4c-0.6-0.6-1.5-1.4-1.3-2.2
						c-0.1-0.2,0-0.4,0-0.7c0.3-0.5,0.8-0.8,1.4-0.9c2.8-0.8,5.7-1,8.4-2c2.7-0.9,5.4-2.9,6-5.7c0.2-0.9,0.3-1.9,1.1-2.3
						c0.4-0.2,0.8-0.2,1.2-0.2c3.1-0.4,5.3-3.1,5.1-6.2c1.3-0.9,3.1-0.2,4.4,0.7c1.3,1,2.4,2.2,3.9,2.7c2.9,0.8,5.6-1.8,8.6-1.8
						c1.3,0,2.5,0.4,3.7,0c1.2-0.4,1.9-1.6,2.8-2.5c0.9-0.9,2.4-1.4,3.3-0.5c-0.2-1.6-0.4-3.2-0.7-4.8c0,0,0,0,0.1,0
						c0-0.2,0-0.3-0.1-0.5c2.7,0.7,5.6,0.2,8-1.2c-2.9-1-5.8-2-8.8-3c-0.3-0.1-0.6-0.2-0.9-0.5c-0.3-0.3-0.3-0.6-0.3-1
						c-0.1-0.7,0.4-1.5,0.8-2.2c0.6-0.9,0.9-2,1-3.1c-0.1-1.1-0.6-2.1-1.6-2.6c-1.5-0.7-3.2,0.1-4.6,0.9c-2.3,1.3-4.5,2.5-6.8,3.8
						c0.2,1,1.5,1.7,2.3,2.4c0.9,0.8,1.3,2,1.3,3.1c0.1,1-0.2,2.1-1,2.9c-0.7,0.7-1.6,1.2-2.6,1.3c0.5,0.8,0.7,1.8,0.7,2.8
						c0,0.5,0,0.9-0.1,1.4c-1.5,0.1-3,0.2-4.6,0.3c-0.5,0.1-1,0-1.5-0.3c-0.5-0.4-0.4-1.2-0.5-1.8c-0.4-1.6-1.7-2.7-3.3-2.9
						c-1.6-0.2-3.1,0-4.7,0.4c-0.7,0.2-1.4,0.2-2,0c-0.4-0.2-0.6-0.6-0.8-1c-0.2-0.6-0.2-1.2-0.2-1.7c-0.1-1.3,0.4-2.7,1.3-3.7
						c1.2-1.3,2.5-2.5,3.9-3.6c3.2-2.8,5.5-6.4,6.7-10.4c2.5-1.1,5.1-2.5,7.6-3.5c2-0.9,4.1-1.6,6.3-2.1c2-0.3,4.1-0.4,6.2-0.3
						c2.8,0,5.7,0.1,8.5,0.2c2.5-0.1,5,0.3,7.4,1.1c2.3,1,4.4,3,4.5,5.5c0,0.2,0,0.3,0,0.5c0.1,0.6-0.1,1.1-0.6,1.5
						c-0.3,0.2-0.7,0.3-1.1,0.2c-2.2,0.1-3.2,0.6-5.2,0.7c1.4,1.4,2.9,2.8,4.9,3.1c3.8,0.5,6.5-3.4,8.3-6.9c0.1,1.8,1.7,3.2,3.5,3.1
						c0.9-0.2,1.8-0.5,2.6-1c7.5-4.1,16-6.3,24.6-6.4c0,0,0-0.1,0-0.1c-0.1-1.3,0.7-2.5,2-2.8c1.8-0.3,3.3,1.2,4.2,2.7
						c0.8,1.6,1.4,3.4,2.7,4.6c1.3,1.2,3.9,1.1,4.5-0.6c0-0.1,0-0.2,0.1-0.4c-0.2-1.3-1.5-2.4-2.7-3.2c-1.2-0.8-2.4-2.2-2.2-3.4
						c-0.1-0.4,0-0.8,0.3-1.2c7.2-1.6,14.5-3.2,21.9-3.5c1.3,0,2.5-0.2,3.7-0.6c1-0.4,1.6-1.4,1.7-2.4c0-0.1,0-0.1,0-0.2
						c-3.3,0.8-6.7-0.5-8.7-3.3c0.1,0,0.3,0,0.4,0c-0.1-0.2-0.3-0.3-0.4-0.5c7.6-0.6,15.5-1.2,22.8,0.5l6.4,5.4
						c-0.1,0.1-0.2,0.2-0.3,0.3l0.3,0.2c-0.9,0.9-2,1.8-2.2,2.7c0,0.2,0.1,0.3,0.2,0.5c0.6,0.6,1.4,0.9,2.2,0.8
						c1.5,0,3.1,0.1,4.6,0.1c31.7,30.4,51.3,71.3,54.9,115.1c0,0,0,0,0,0c0,0.2,0,0.3,0,0.5c-2.3-0.1-4.5,2.6-4.6,5.2
						c0,0.1,0,0.2,0,0.3c0.4,3.3,2.8,6,4.5,8.8c0.3,0.5,0.5,0.9,0.8,1.4c0-0.1,0-0.2,0-0.3v-1.1
						C655.3,175.3,655.1,170.2,654.7,165.2z"/>
				</g>
			</g>
		</g>
	</g>
	<g>
		<path class="st1" d="M341.7,217.5c0-0.3,0-0.5,0.1-0.8c0-0.2,0-0.4,0-0.6c0,0,0,0.1,0,0.1C341.7,216.7,341.7,217.1,341.7,217.5z"
			/>
		<path class="st1" d="M334.6,235.3c0,1-0.1,2-0.2,3c-0.3,1.2-1.2,2.2-1.5,3.4c-0.1,0.4-0.1,0.8-0.1,1.2c0-0.2,0-0.5,0.1-0.7
			c0.3-1.2,1.2-2.2,1.5-3.4c0.1-1,0.2-2,0.2-3c0.6-4.6,7.1-6.6,7.7-11.2c0.1-0.4,0.1-0.8,0-1.2c0,0.2,0,0.5,0,0.7
			C341.6,228.6,335.1,230.7,334.6,235.3z"/>
		<path class="st1" d="M358,315.2c0-2.7,0.4-5.5,1.3-8.1c1.3-3.5,3.3-7,3.3-10.7c0-0.1,0-0.1,0-0.2c0,3.6-2,7-3.2,10.4
			C358.4,309.4,358,312.3,358,315.2z"/>
		<g>
			<path class="st1" d="M358,315.2c0-2.7,0.4-5.5,1.3-8.1c1.3-3.5,3.3-7,3.3-10.7c0-0.1,0-0.1,0-0.2c0,3.6-2,7-3.2,10.4
				C358.4,309.4,358,312.3,358,315.2z"/>
			<path class="st1" d="M341.7,217.5c0-0.3,0-0.5,0.1-0.8c0-0.2,0-0.4,0-0.6c0,0,0,0.1,0,0.1C341.7,216.7,341.7,217.1,341.7,217.5z"
				/>
			<path class="st1" d="M334.6,235.3c0,1-0.1,2-0.2,3c-0.3,1.2-1.2,2.2-1.5,3.4c-0.1,0.4-0.1,0.8-0.1,1.2c0-0.2,0-0.5,0.1-0.7
				c0.3-1.2,1.2-2.2,1.5-3.4c0.1-1,0.2-2,0.2-3c0.6-4.6,7.1-6.6,7.7-11.2c0.1-0.4,0.1-0.8,0-1.2c0,0.2,0,0.5,0,0.7
				C341.6,228.6,335.1,230.7,334.6,235.3z"/>
			<g>
				<g>
					<g>
						<g>
							<path class="st0" d="M359.4,306.7c1.2-3.5,3.2-6.8,3.2-10.4c-0.2-5.2-4.5-9.4-5.5-14.6c-0.4-2.1-0.3-4.5-1.5-6.2
								c-1.1-1.3-2.4-2.3-4-2.9c-4.8-2.6-9.4-6.6-10.2-12c-0.3-2.5,0.2-5.1-0.9-7.4c-1-2.1-3.1-3.5-4.9-5c-1.6-1.4-3.1-3.3-2.9-5.4
								c0-0.4,0-0.8,0.1-1.2c0.3-1.2,1.2-2.2,1.5-3.4c0.1-1,0.2-2,0.2-3c0.6-4.6,7.1-6.6,7.7-11.2c0-0.2,0-0.5,0-0.7
								c-0.1-1.9-0.7-3.9-0.6-5.8c0-0.4,0-0.9,0.1-1.3c0,0,0-0.1,0-0.1c-0.2-1.2-1.4-2.2-2.6-2.5c-1.5-0.2-3-0.2-4.4-0.1
								c-4.7-0.3-8.3-4.4-10.5-8.6c-0.9-1.7-1.7-3.5-3.4-4.4c-2.6-1.4-6.2-0.1-8.4-2.1c-0.6-0.6-1.1-1.2-1.8-1.8
								c-2.4-1.7-6,1-8.5-0.4c-0.9-0.5-1.5-1.4-2.4-2c-1.1-0.7-2.6-0.6-3.8-1c-0.4-0.1-0.7-0.3-1.1-0.6
								c3.4,50.2,27.2,94.6,63.2,125.2c-0.1-0.9-0.1-1.8-0.1-2.7C358,312.3,358.4,309.4,359.4,306.7z"/>
						</g>
					</g>
				</g>
			</g>
			<g>
				<g>
					<g>
						<path class="st2" d="M424.5,244.4c-1.7-1.4-4.3-1.1-6-2.4c-1.6-1.2-2.2-3.5-3.9-4.5c-1.6-0.9-3.6-0.3-5.4-0.7
							c-3.1-0.7-5.1-4.3-8.3-4.7c-1.8-0.2-3.8,0.7-5.3-0.4c-1.3-0.9-1.3-2.8-1.6-4.4c-0.9-5-4.8-8.9-9.8-9.8
							c-1.9-0.3-3.9-0.2-5.4-1.2c-1.6-1-2.3-3-3.6-4.4c-2-2.3-5.2-3.1-8.2-3.8c-4-0.9-8.1-1.9-12.1-2.8c-2.1-0.5-4.9-0.8-6.1,1.1
							c-0.3,0.7-0.6,1.5-0.7,2.3c-0.9,2.9-3.6,4.9-6.6,5c-1-1.7-2.7-3-4.6-3.6c-1.3-0.2-2.5-0.5-3.7-0.9c-2-1-3.1-3-2.9-5.1
							c0-0.6,0.2-1.3,0.5-1.9c0-0.1,0.1-0.2,0.1-0.3c0.6-1.1,0.8-2.2,0.8-3.4c0-1.6-0.7-3.3-1.9-4.5c-2.1-1.9-5-2.3-7.8-2.1
							c-0.2-0.4-0.2-0.9-0.2-1.3c0.1-1.2,1-2.4,2-3.2c1.3-1.1,2.9-2.3,3.2-4c0-0.2,0-0.5,0-0.7c-0.2-2.3-3.3-4-5.6-3.2
							c-2.6,0.8-4.3,3.4-5.4,5.9c-0.5,1.5-1.3,2.9-2.2,4.2c-0.9,1.3-2.5,1.9-4.1,1.7c-2.2-0.6-3-3.1-3.5-5.3
							c-0.8-2.9-1.2-5.9-1.2-8.8c0-0.1,0-0.1,0-0.2c0.1-3,1.2-5.8,3.3-7.9c3.6-3.3,9.1-3,13.9-2.4c-0.1-0.2-0.2-0.3-0.3-0.5
							c-0.3-0.6-0.4-1.3-0.4-1.9c0.1-0.8,0.4-1.6,1.1-2.2c1.3-1.2,3.1-1.6,4.8-1.2c1.5,0.3,2.8,1.1,3.7,2.2c1.4,1.7,1.8,3.9,2.8,5.8
							c1,1.9,3.4,3.5,5.3,2.5c1.3-0.7,1.7-2.2,1.7-3.8c0-0.4-0.1-0.8-0.2-1.2c-0.4-1.7-1.2-3.4-1.1-5.2c0-0.1,0-0.2,0-0.3
							c0.3-3.5,4-5.7,7.2-7.2s7-3.4,7.5-7c0-0.7,0.2-1.4,0.4-2c0.4-0.6,0.9-1.1,1.5-1.4c9.5-6.3,19.1-12.6,30-16.1
							c0.6-0.2,0.6,0,1.2-0.1c0.4-0.2,0.4-0.6,0.4-1c-0.1-0.5-0.4-1-0.9-1.3c-0.8-0.5-1.8-0.9-2-1.8c0-0.2,0-0.4,0-0.6
							c0.1-0.5,0.3-1,0.4-1.4c0-0.1,0-0.3,0-0.4c-0.1-1.2-1.1-2.2-2.3-2.2c-0.3,0-0.6,0-0.9,0.1c-0.2-0.3-0.3-0.6-0.2-0.9
							c0.2-0.9,1.4-1.7,2.5-2c4.2-1.1,8.5-1.8,12.8-2.1c0.5-0.1,1,0,1.5,0.2c0.3,0.3,0.5,0.7,0.5,1c0.1,0.5-0.1,1-0.4,1.4
							c-0.6,0.7-1.2,1.3-2,1.8c-1,1-1.6,2.3-1.6,3.6c0,0.6,0,1.2,0.2,1.8c2.3,1.2,4.7,2.3,7.2,1.9c2.1-0.3,4-2.4,3.9-4.4
							c0-0.4-0.1-0.7-0.3-1.1c-1.1-2.1-4.4-2.6-5-4.9c-0.1-0.3-0.1-0.6-0.1-0.9c0.2-2.1,2.6-4.1,2.5-6.2c0-0.2,0-0.4-0.1-0.6
							c-0.4-1.2-1.5-1.8-2.4-2.7c-1.4-1.4-2.2-3.3-2.1-5.2c0-0.9,0.2-1.9,0.6-2.8c-0.1,0-0.1,0-0.2,0c-2.9,0.4-5.8-0.5-7.8-2.5
							c-1.9-1.9-3.4-5-6.2-4.9c-2.5,0.1-4.6,3-7,2.1c-0.6-0.2-1.2-0.7-1.7-0.4c-0.4,0.2-0.6,0.6-0.7,1.1c-0.2,0.8-0.2,1.6-0.2,2.4
							c0,0.5,0,1,0,1.5c0,1.6-0.1,3.2-0.9,4.6c-1.7,2.7-5.6,3-7.6,5.4c-1.1,1.3-1.5,3.1-2.6,4.4s-3.2,2.3-4.4,1.1
							c0.1-0.1,0.1-0.3,0.1-0.4c0.4-0.9,0.5-1.8,0.4-2.7c-0.1-1.6-0.9-3.2-2.2-4.3c-1.1-0.7-2.4-1.3-3.6-1.8
							c-1.4-0.6-2.8-1.4-4.1-2.3c-0.6-0.4-1.1-0.9-1.5-1.6c-0.1-0.5-0.2-0.9-0.2-1.4c0-0.4,0.1-0.8,0.3-1.1c1.3-3.6,4.4-6.2,8.2-6.8
							c1.6-0.2,3.5-0.1,4.6-1.4c0.6-0.7,0.9-1.6,1.7-1.9c0.5-0.1,1.1,0,1.6,0.2c2,0.7,4,1.4,6.1,2.1c0.7,0.3,1.4,0.4,2.2,0.4
							c0.8-0.1,1.3-0.8,1.3-1.5c0,0,0-0.1,0-0.1c-0.3-0.9-1.7-1.4-1.5-2.4c0,0,0-0.1,0-0.1c0.1-0.3,0.2-0.6,0.5-0.8
							c4.4-4.7,10.7-7.2,17.2-6.8c0.1,0.2,0.2,0.4,0.2,0.6c0.1,1.1-0.8,2.3-1.7,3.2c-0.6,0.6-1.1,1.5-1.2,2.3
							c-0.1,0.6,0.1,1.1,0.6,1.5c0.5,0.3,1,0.4,1.6,0.4c1.5,0.2,2.9,0.6,4.3,1.3c2.1,0.9,4.2,1.9,6.2,3c0-0.2-0.1-0.3-0.1-0.5
							c-0.1-0.5-0.1-1.1-0.1-1.6c0-0.6,0.1-1.3,0.3-1.9c0.5-1.3,1.8-2.1,3.2-1.7c1.2,0.5,1.8,2.1,3.1,2.2c1.3,0.2,2-1.3,1.9-2.7
							c0-0.4-0.1-0.8-0.3-1.2c-0.7-1.6-2.1-2.9-2.2-4.6c0-0.2,0-0.4,0-0.6c0-0.4,0-0.8,0-1.2c0-0.6-0.1-1.1-0.6-1.4
							c-0.3-0.2-0.7-0.4-1.1-0.4c-7.7-1.4-15.4-2.8-23.1-4.2c-1.3-0.2-3.2-0.1-3.4,1.2c0,0,0,0.1,0,0.1c0,0.5,0.3,1.1,0.4,1.6
							c0,0.2,0,0.4,0,0.7c-0.3,0.8-1.4,0.7-2.2,1c-1,0.5-1.6,1.4-1.7,2.5c0,0.2,0,0.5,0,0.7c0.2,1,0.5,2,1.1,2.9
							c0.1,0.2,0.2,0.4,0.4,0.6c-1.5-0.6-3.8-0.7-5.3-1.4c-0.2-1.7-0.7-3.5-1.3-5.1c-0.1-1-1.1-1.7-2-1.5c-0.1,0-0.2,0-0.3,0.1
							c-2,0.3-4,0.6-6,0.9c-0.5,0-1,0.2-1.4,0.5c-0.2,0.2-0.3,0.5-0.3,0.7c-0.1,0.6,0.2,1.4,0.3,2.1c0,0.1,0,0.3,0,0.4
							c-0.1,1.3-1.1,2.4-2.4,2.6c-1.2,0.3-2.5,0.2-3.8,0c-2.8-0.4-5.6-0.9-8.3-1.3c0.3-0.1,0.6-0.2,0.9-0.3c2.1-0.8,3.9-2.2,5.4-3.9
							c0.7-0.8,1.1-1.9,1.1-2.9c0-0.6-0.3-1.2-1-1.4c-0.5-0.1-1-0.2-1.4-0.1c-3.8,0-6.8-3.1-10.3-4.5c-1.1-0.4-2.3-0.6-3.5-0.6
							l-3.7,4.5l-0.3,0.3c0.1,0,0.2,0.1,0.2,0.1c0.2,0.2,0.3,0.4,0.4,0.7c0.1,0.7-0.4,1.6-0.5,2.5c0,0.2,0,0.3,0,0.5
							c0.2,1.6,2.3,2,4,2.1c1.3,0.1,2.8,1,3.1,2.1c0.1,0.3,0,0.6-0.1,0.9c-4.1,1.4-8.2,0-12.4-1.6c-21.6,30.4-33.2,66.8-33.2,104.1
							c0,0.1,0,0.1,0,0.2c0,3.9,0.1,7.7,0.4,11.5c0,0,0,0,0,0c0,0,0,0,0,0c0.3,0.2,0.7,0.4,1.1,0.6c1.2,0.5,2.7,0.4,3.8,1
							c0.9,0.5,1.5,1.5,2.4,2c2.6,1.4,6.1-1.3,8.5,0.4c0.6,0.6,1.2,1.2,1.8,1.8c2.2,1.9,5.8,0.6,8.4,2.1c1.6,0.9,2.5,2.8,3.4,4.4
							c2.2,4.2,5.8,8.3,10.5,8.6c1.5-0.1,3,0,4.4,0.1c1.3,0.3,2.5,1.3,2.6,2.5c0,0.2,0,0.4,0,0.6c0,0.3-0.1,0.5-0.1,0.8
							c-0.1,1.9,0.6,3.9,0.6,5.8c0,0.4,0,0.8,0,1.2c-0.6,4.6-7.1,6.6-7.7,11.2c0,1-0.1,2-0.2,3c-0.3,1.2-1.2,2.2-1.5,3.4
							c-0.1,0.2-0.1,0.5-0.1,0.7c-0.2,2,1.3,4,2.9,5.4c1.8,1.5,3.9,2.9,4.9,5c1,2.3,0.5,4.9,0.9,7.4c0.7,5.4,5.4,9.4,10.2,12
							c1.5,0.6,2.9,1.6,4,2.9c1.2,1.8,1.1,4.1,1.5,6.2c1,5.1,5.3,9.4,5.5,14.6c0,0.1,0,0.1,0,0.2c0.1,3.8-2,7.2-3.3,10.7
							c-0.9,2.6-1.3,5.3-1.3,8.1c0,0.9,0,1.8,0.1,2.7c0,0.2,0,0.4,0.1,0.5c0,0.1,0,0.2,0,0.3c7,5.9,14.4,11.3,22.2,16.1
							c0-0.1,0.1-0.1,0.1-0.2c0.1-0.1,0.1-0.2,0.2-0.4c0.3-0.5,0.5-1,0.6-1.5c0.1-0.3,0.1-0.6,0-0.9c-0.1-1.3-0.8-2.6-2-3.3
							c0.1-0.1,0.3-0.1,0.4-0.2c1.2-0.5,2.2-1.2,3.1-2.1c0.7-0.7,1-1.7,1-2.6c0-0.4-0.1-0.9-0.3-1.3c0.1,0,0.1,0,0.2,0
							c2.1,0.3,4.6,0.3,6-1.3c0.7-0.9,1-2,0.9-3.1c0-0.6-0.1-1.3-0.3-1.9c-0.5-1.7-1.2-3.3-1.2-5.1c0,0,0,0,0,0c5,0.2,10,0.1,15-0.5
							c0-0.2-0.1-0.3-0.2-0.5c-0.8-2.2-2.3-4.1-4.4-5.3c0.2,0,0.3-0.1,0.5-0.2c2-0.7,3.8-3.1,4.5-5.1c0.3-1.2,0.5-2.4,0.5-3.7
							c0-1-0.1-2.1-0.4-3.1c-0.1-0.4-0.1-0.8-0.1-1.2c0-0.2,0-0.4,0-0.6c0.4-0.8,1-1.4,1.8-1.7c3.7-2.1,7.5-4.3,11.2-6.4
							c0.7-0.3,1.3-0.8,1.8-1.3c0.7-0.8,0.9-1.8,0.8-2.8c0-0.8-0.2-1.6-0.5-2.3c-0.6-1.7-1.6-3.3-1.8-5.1c-0.1-0.4-0.1-0.8,0-1.2
							c0.2-4.8,5.2-8.4,7-13.1c0.7-2,1-4.1,1.1-6.2c0-0.6,0.1-1.3,0.1-1.9C426.1,247.2,425.8,245.5,424.5,244.4z"/>
					</g>
				</g>
			</g>
			<g>
				<g>
					<g>
						<path class="st2" d="M655.3,182.2c-0.2-0.5-0.5-1-0.8-1.4c-1.7-2.8-4.1-5.5-4.5-8.8c0-0.3,0-0.5,0-0.8
							c0.1-2.6,2.3-5.3,4.6-5.2c0-0.2,0-0.3,0-0.5c-3.8-43.6-23.3-84.3-54.9-114.6c-1.5,0-3.1,0-4.6-0.1c-0.8,0.1-1.7-0.2-2.2-0.8
							c-0.2-0.3-0.3-0.7-0.2-1c0.2-0.9,1.3-1.8,2.2-2.7l-0.3-0.2l-6.1-5.2c-7.2-1.7-15-1.2-22.5-0.6c-0.1,0-0.3,0-0.4,0
							c2,2.8,5.4,4.1,8.7,3.3c0,0.1,0,0.1,0,0.2c0.1,1.2-0.6,2.4-1.7,2.9c-1.2,0.5-2.4,0.7-3.7,0.6c-7.4,0.3-14.7,1.9-21.9,3.5
							c-0.2,0.2-0.2,0.5-0.3,0.7c-0.2,1.3,1.1,2.6,2.2,3.4c1.2,0.8,2.5,1.9,2.7,3.2c0,0.3,0,0.6-0.1,0.8c-0.5,1.7-3.1,1.8-4.5,0.6
							c-1.3-1.2-1.9-3-2.7-4.6c-0.8-1.6-2.4-3.1-4.2-2.7c-1.1,0.3-1.9,1.2-2,2.3c0,0,0,0.1,0,0.1c0,0.2,0,0.3,0,0.5
							c-8.6,0-17.1,2.2-24.6,6.4c-0.8,0.5-1.7,0.9-2.6,1c-1.8,0.1-3.4-1.3-3.5-3.1c-1.8,3.4-4.5,7.4-8.3,6.9c-2.2-0.3-3.8-2-5.3-3.5
							c0.2,0,0.3,0,0.4,0c2-0.1,3.1-0.7,5.2-0.7c0.4,0,0.7-0.1,1.1-0.2c0.4-0.4,0.6-1,0.6-1.5c0,0,0,0,0,0c-0.2-2.5-2.2-4.6-4.5-5.5
							c-2.4-0.8-4.9-1.2-7.4-1.1c-2.8-0.1-5.7-0.1-8.5-0.2c-2.1-0.1-4.1,0-6.2,0.3c-2.2,0.5-4.3,1.2-6.3,2.1
							c-2.5,1.1-5.1,2.5-7.6,3.5c-1.2,4-3.6,7.7-6.7,10.4c-1.4,1.1-2.7,2.3-3.9,3.6c-0.8,0.9-1.2,2-1.3,3.2c0,0.6,0,1.2,0.2,1.7
							c0.1,0.4,0.4,0.8,0.8,1c0.6,0.3,1.4,0.3,2,0c1.5-0.5,3.1-0.6,4.7-0.4c1.6,0.2,2.9,1.3,3.3,2.9c0.1,0.6,0,1.4,0.5,1.8
							c0.4,0.3,1,0.4,1.5,0.3c1.5-0.1,3-0.2,4.6-0.3c0.1-0.5,0.1-0.9,0.1-1.4c0-1-0.4-1.9-1-2.7c0.1,0,0.2,0,0.3,0
							c1-0.1,1.9-0.5,2.6-1.3c0.7-0.8,1-1.9,1-2.9c-0.1-1-0.5-1.9-1.3-2.6c-1-0.9-2.5-1.6-2.3-2.9c0,0,0,0,0,0
							c2.3-1.3,4.5-2.5,6.8-3.8c1.4-0.8,3.1-1.6,4.6-0.9c1,0.5,1.5,1.5,1.6,2.6c0.1,1.2-0.3,2.6-1,3.6c-0.3,0.5-0.7,1.1-0.8,1.7
							c-0.1,0.4,0,0.7,0.3,1c0.2,0.2,0.5,0.4,0.9,0.5c2.9,1,5.8,2,8.8,3c0.2,0.1,0.3,0.1,0.5,0.2c-2.5,1.7-5.5,2.3-8.4,1.6
							c0,0,0,0-0.1,0c0.2,1.6,0.4,3.2,0.7,4.8c0,0.2,0,0.4,0.1,0.5c-0.8-0.9-2.4-0.4-3.4,0.5c-0.9,0.9-1.6,2-2.8,2.5
							c-1.2,0.4-2.5,0-3.7,0c-3,0-5.7,2.6-8.6,1.8c-1.5-0.4-2.7-1.7-3.9-2.7c-1.3-1-3.1-1.6-4.4-0.7c0.2,3.1-2.1,5.8-5.1,6.2
							c-0.4,0-0.8,0.1-1.2,0.2c-0.8,0.4-0.9,1.5-1.1,2.3c-0.7,2.8-3.3,4.7-6,5.7c-2.7,1-5.6,1.2-8.4,2c-0.6,0.1-1.1,0.4-1.4,0.9
							c0,0.1,0,0.1,0,0.2c-0.2,0.8,0.7,1.6,1.3,2.2c1.2,1.2,1.9,2.8,2,4.4c0,0.7,0,1.3-0.2,2c-0.7,2.3-2.8,3.9-5.2,4
							c-1.5,0-3.3-0.6-4.5,0.4c-0.8,0.8-1.2,1.9-1.2,3c-0.2,1.8-0.5,3.6-0.7,5.4c0,0.3-0.1,0.6-0.1,0.9c0,1,0.1,2.1,0.9,2.6
							c0.6,0.3,1.2,0.5,1.8,0.4c6.5,0.2,13.5-2.5,16.8-8.2c0.6-1.1,1.1-2.2,1.8-3.2c3-4.2,9.5-4.8,14-2.2c4.5,2.5,7.4,7.3,9.2,12.1
							c0.1,0.4,0.3,0.7,0.7,0.9c0.4,0.1,0.8,0,1.1-0.2c1.7-1,2.7-2.9,2.7-4.7c0-0.9-0.2-1.8-0.6-2.6c-1-1.8-3-2.9-4.6-4.2
							c-1.2-1.1-2.3-2.7-2.2-4.3c0-0.4,0.1-0.8,0.3-1.2c3.6,2,7.1,3.9,10.7,5.9c1.1,0.5,2,1.3,2.6,2.4c0.1,0.3,0.1,0.5,0.2,0.8
							c0.1,1.2-0.4,2.4-0.6,3.5c0,0.1,0,0.3,0,0.4c-0.1,1.9,0.9,3.8,2.5,4.9c1.8,1.1,4,1.3,5.9,0.3c0.1-0.4,0.1-0.7,0.1-1.1
							c-0.1-2.3-1.6-4.7-1.5-6.8c0-0.6,0.2-1.2,0.7-1.8c1.9-2.2,6.4-0.8,7.8-3.4c0.3-0.5,0.3-1.1,0.3-1.6c-0.1-1.2-0.6-2.5-0.5-3.7
							c0-0.4,0.1-0.8,0.3-1.1c0.9-1.8,3.4-1.7,5.3-1.1c1.9,0.6,4,1.5,5.7,0.6c0.9-0.7,1.8-1.4,2.5-2.2c0.9-0.7,2.4-0.9,3,0
							c0.2,0.2,0.2,0.4,0.3,0.7c0.1,1-0.6,2.1-0.7,3.2c0,0.2,0,0.5,0,0.7c0.4,1.8,3.1,1.8,4.6,2.9c0.7,0.6,1.1,1.4,1.1,2.2
							c0.1,1.6-0.8,3.4-2.2,4.3c-2.2,1.3-5,1.1-7.5,0.9c-3.7-0.4-7.3-0.7-11-1.1c-1.2-0.1-2.6-0.2-3.5,0.6c-0.6,0.5-0.8,1.2-0.8,1.9
							c0,1,0.3,2.1,0.8,2.9c2.6,4.2,8.7,3.8,13.6,3.6c2.1-0.1,3.9,1.9,4.3,4c0.2,0.7,0.2,1.4,0.2,2.1c0,1.4-0.2,2.8-0.2,4.3
							c0,0.3,0,0.5,0,0.8c0,5.9,2.2,11.6,6.3,16c1.7,1.8,3.9,3.5,4.7,5.9c0.5,1.7,0.3,3.5,0.7,5.2c1,4.7,6.3,8.3,6.4,12.9
							c0,0.3,0,0.6,0,0.8c0,0.2,0,0.3-0.1,0.5c4.3,2,9.4-0.3,13-3.3c3.6-3,6.5-7,10.7-9.3c1.3-0.6,2.6-1.4,3.7-2.3
							c0.8-0.7,1.3-1.8,1.2-2.8c0-0.4-0.1-0.8-0.3-1.1c-1-1.7-3.8-1.8-4.4-3.7c-0.1-0.4-0.1-0.7-0.1-1.1c0-0.6,0.2-1.3,0.1-1.9
							c0-0.3-0.1-0.5-0.2-0.8c-0.6-1.2-2.3-1.4-3.5-1c-1.3,0.4-2.3,1.3-3.6,1.7c-2.6,0.7-5.3-0.5-6.7-2.8c-0.6-1.2-0.9-2.5-0.8-3.8
							c0.1-1.3,0.5-2.5,1.2-3.6c2.9,1.9,6,3.4,9.2,4.6c5.8,2.1,11.9,3,17.7,4.9c5.8,1.9,11.6,5.1,14.7,10.3c0.2,0.4,0.5,0.8,0.9,1.2
							c1.7,1.2,3.4-1.4,3.9-3.4c1.9,8.7,4.3,17.3,7.2,25.7c0.5,1.8,1.4,3.5,2.7,4.8c2.7,2.3,7.1,1.4,9.5-1.2
							c2.4-2.6,3.2-6.3,3.2-9.9c0-0.5,0-1,0-1.5c0-0.4,0-0.8,0-1.2c0-2.4,0.1-4.8,1.1-7c1.1-1.9,2.7-3.6,4.5-5
							c2.1-1.8,4.5-3.7,7.2-3.5c2.6,0.1,4.8,2.1,6.2,4.3c1.4,2.2,2.3,4.7,3.8,6.9c1.5,2.3,5.1,4.1,6.8,1.9c2.2,5.4,2.4,11.3,3.7,17
							c1.2,5.7,4,11.6,9.3,14.1c0.1-0.4,0.1-0.9,0.1-1.3c0-3.9-4-7.2-5.6-11.1c-0.8-2-1-4.1-1-6.2c0-1,0-2.1,0.1-3.1
							c0-0.6,0.1-1.4,0.7-1.7c0.3-0.1,0.7-0.2,1-0.1c3.8,0.6,5.4,6.2,9.3,6.5c1.4,0.1,2.8-0.6,3.7-1.7c0,0,0,0,0,0c0,0,0,0,0,0l0-1
							l0.2-6.5L655.3,182.2C655.3,182.2,655.3,182.2,655.3,182.2z"/>
					</g>
				</g>
			</g>
		</g>
	</g>
</g>
<g>
	<path class="st3" d="M112.2,541.9l50.4-44.6C114.6,491.5,112.2,541.9,112.2,541.9z"/>
	<path class="st3" d="M130.4,633.2c4.7-5.7,10.3-9.9,16.7-12.6c2,6.7,8.2,11.6,15.6,11.6c9,0,16.3-7.3,16.3-16.3
		s-7.3-16.3-16.3-16.3c-9,0-16.3,7.3-16.3,16.3c0,0.9,0.1,1.9,0.3,2.8c-6.9,2.9-12.8,7.3-17.8,13.3c-11.3,13.7-15.7,33.3-17.2,49.9
		V491.5c-0.7,0-1.3-0.1-2-0.2v220h3.8C112.8,702.9,110.1,657.9,130.4,633.2z"/>
	<path class="st0" d="M112.2,491.5c9.1,0,16.4-7.4,16.4-16.4s-7.4-16.4-16.4-16.4s-16.4,7.4-16.4,16.4c0,8.2,6,15,13.9,16.2
		c0.7,0.1,1.3,0.2,2,0.2C111.9,491.5,112.1,491.5,112.2,491.5z"/>
	<path class="st4" d="M407.6,338.3c0-4.9,1.7-9.4,4.5-12.9c3.2,4.6,10.8,7.8,19.7,7.8c6.1,0,11.6-1.6,15.5-4
		c1.3,2.8,2.1,5.8,2.1,9.1c0,7.1-3.5,13.3-8.9,17.1c11-4.8,18.6-15.7,18.6-28.4c0-16.5-12.9-30-29.1-30.9c0.1-0.6,0.1-1.1,0.1-1.7
		c0-7.1-5.7-12.8-12.8-12.8c-7.1,0-12.8,5.7-12.8,12.8c0,1,0.1,2,0.3,2.9c-2.8-2.4-4.6-5.9-4.6-9.8c0-6.6,5-12.1,11.5-12.8
		c-0.4,0-0.9-0.1-1.3-0.1c-7.1,0-12.8,5.7-12.8,12.8c0,5.4,3.3,9.9,7.9,11.9c0.6,1.5,1.5,2.9,2.7,4.1c-6.7,5.7-11,14.2-11,23.7
		c0,10,4.7,18.8,12,24.5c0.4-0.9,0.9-1.8,1.3-2.6C408.6,345.7,407.6,342.1,407.6,338.3z"/>
	<path class="st5" d="M427,365.4c0.5-2.1,0.9-4.2,1.4-6.2c0,0,0.1,0,0.1,0c4.5,0,8.6-1.4,12-3.8c5.4-3.8,8.9-10,8.9-17.1
		c0-3.3-0.8-6.4-2.1-9.1c-3.9,2.5-9.4,4-15.5,4c-8.9,0-16.4-3.2-19.7-7.8c-2.8,3.6-4.5,8-4.5,12.9c0,3.8,1.1,7.4,2.9,10.5
		c-0.4,0.8-0.8,1.7-1.3,2.6c-0.5,1-1,2-1.5,3C418.4,372.2,424.6,367,427,365.4z"/>
	<path class="st5" d="M374.3,547.9c-12.1-0.1-22.5-0.3-28.6-0.4l-8.7,24.4c5.9,3.2,15.4,8.3,19.9,10.5L374.3,547.9z"/>
	<path class="st5" d="M456.3,577.9l18.6-12.4c-1.7-4.1-5.2-12.2-9-20.4c-4.3,1.4-16.7,2.1-32.1,2.5
		C442.1,559.2,451.8,572.4,456.3,577.9z"/>
	<path class="st4" d="M298.7,699.6c5-5,7.2-15.1,7.2-15.1l7.2-18.8c0,0-0.7-10.1,4.3-11.5s7.9-19.5,7.9-19.5s7.9-7.9,9.4-10.1
		s26.7-40.4,24.5-41.1c-0.3-0.1-1.2-0.5-2.3-1.1c-4.5-2.2-13.9-7.3-19.9-10.5c-3.1-1.7-5.2-2.8-5.2-2.8l-29.6,77.2c0,0,2.2,4.3,0,5
		s-7.2,12.3-7.2,13s-5,1.4-5,3.6s-4.3,19.5-4.3,19.5S293.6,704.7,298.7,699.6z"/>
	<path class="st4" d="M454.4,579.2l20.2,30.3c0,0,4.3,14.4,9.4,17.3s13,21.6,13,21.6s3.6,0.7,3.6,4.3s5.8,13.7,5.8,13.7
		c0.6,2.2,1.3,4.4,2.2,6.5c0.7,1.4,7.9-0.7,7.9-0.7c1.6,2.8,3.1,5.7,4.3,8.7c2.2,5,10.8,1.4,17.3,0s5-10.1-2.9-12.3
		s-20.2-25.2-21.6-26.7s0-5.8,0-7.2s-37.5-70-37.5-70l-1.2,0.8l-18.6,12.4L454.4,579.2z"/>
	<path class="st4" d="M433.8,547.7c15.4-0.4,27.8-1.2,32.1-2.5c0.8-0.3,1.4-0.6,1.6-0.9c3.1-5-22.8-49.3-30.5-61.1
		c-8.3,3-57-5.2-72.3-13.4c-6.5,17.3-28.6,77.6-24.9,77.6c0.5,0,2.6,0,5.9,0.1c6.1,0.1,16.5,0.3,28.6,0.4
		C392.8,548.1,415.4,548.1,433.8,547.7z"/>
	<path class="st5" d="M332.9,291.3l-10.8-16.6c0,0,5.4-34.8-1.9-28.3s-9.5,32.7-9.5,32.7l11.9,18.1
		C323.9,295.1,329.7,292.6,332.9,291.3z"/>
	<path class="st5" d="M537.3,363.5l19.5-2.1c0,0,20.2-17.3,18.8-25.2c-1.4-7.9-24.5,16.6-24.5,16.6l-16.7,1.2c0,0.1,0.1,0.1,0.1,0.2
		C535.3,356.6,536.8,360.4,537.3,363.5z"/>
	<path class="st2" d="M437,483.2c0.7-0.3,1.1-0.6,1.2-1.1c0.7-5.8-7.2-20.9-3.6-28.1s3.6-33.9,3.6-33.9l4.2-27.5
		c22.9-5.8,90.5-22.9,93.5-24.1c1.6-0.6,1.8-2.7,1.4-5.1c-0.5-3.1-2-6.9-2.8-9.3c0-0.1-0.1-0.1-0.1-0.2c-2.6-3.8-37.4,5.3-39.5,7.4
		c-2.2,2.2-29.6,8.7-29.6,8.7s-10.1,0.7-10.8,0c-0.4-0.4-4.3-0.4-8.3-0.3l0-0.1c0,0-16.9-4.7-18.4-4.7c-0.2,0-0.4,0.2-0.8,0.4
		c-2.3,1.6-8.6,6.9-19.4-10.9c-0.1-0.2-0.3-0.4-0.4-0.7c0,0-6.5,5-7.9,5.8c-1.4,0.7-9.3-5.8-11.3-6.4c-4.5-3-17.1-11.6-16.5-13.4
		c0.7-2.2-1.4-3.6-1.4-3.6s-2.2-2.9-2.2-3.6c0-0.7-2.9-1.4-2.9-1.4l-18-20.9c0,0-10.1-20.2-12.3-19.5c-0.4,0.1-1,0.4-1.8,0.7
		c-3.2,1.2-9,3.7-10.3,5.9c-0.3,0.5-0.4,0.9-0.1,1.4c1.4,2.9,41.8,64.9,41.8,64.9s1.4,8.8,3.8,12.3c0.8,2.2,2,8.4-0.5,23.4
		c-1.3,7.7-3.9,40.6-3.9,44.9s-14.1,15-1.1,24.3c0.6,0.5,1.4,0.9,2.2,1.4C380,478.1,428.7,486.2,437,483.2z"/>
	<polygon class="st2" points="113.5,711.3 109.7,711.3 0,711.3 0,713.5 664,713.5 664,711.3 	"/>
</g>
</svg>
